# AST/ASF file generated using VICON BodyLanguage
# -----------------------------------------------
:version 1.10
:name VICON
:units
  mass 1.0
  length 0.45
  angle deg
:documentation
   .ast/.asf automatically generated from VICON data using
   VICON BodyBuilder and BodyLanguage model FoxedUp or BRILLIANT.MOD
:root
   order TX TY TZ RX RY RZ
   axis XYZ
   position 0 0 0  
   orientation 0 0 0 
:bonedata
  begin
     id 1 
     name lhipjoint
     direction 0.643822 -0.745931 0.170529 
     length 2.62041 
     axis 0 0 0  XYZ
  end
  begin
     id 2 
     name lfemur
     direction 0.34202 -0.939693 0  
     length 7.92179  
     axis 0 0 20  XYZ
    dof rx ry rz
    limits (-160.0 20.0)
           (-70.0 70.0)
           (-60.0 70.0)
  end
  begin
     id 3 
     name ltibia
     direction 0.34202 -0.939693 0   
     length 8.16326   
     axis 0 0 20   XYZ
    dof rx
    limits (-10.0 170.0)
  end
  begin
     id 4 
     name lfoot
     direction 0.0837341 -0.230058 0.969568   
     length 1.94455   
     axis -90 7.62852e-016 20   XYZ
    dof rx rz
    limits (-45.0 90.0)
           (-70.0 20.0)
  end
  begin
     id 5 
     name ltoes
     direction 1.5356e-011 -4.21695e-011 1   
     length 0.978804   
     axis -90 7.62852e-016 20   XYZ
    dof rx
    limits (-90.0 20.0)
  end
  begin
     id 6 
     name rhipjoint
     direction -0.656883 -0.73503 0.168037   
     length 2.65927  
     axis 0 0 0  XYZ 
  end
  begin
     id 7 
     name rfemur
     direction -0.34202 -0.939693 0   
     length 7.58746   
     axis 0 0 -20   XYZ
    dof rx ry rz
    limits (-160.0 20.0)
           (-70.0 70.0)
           (-70.0 60.0)
  end
  begin
     id 8 
     name rtibia
     direction -0.342117 -0.939657 0   
     length 8.27303   
     axis 0 0 -20   XYZ
    dof rx
    limits (-10.0 170.0)
 end
 begin
     id 9 
     name rfoot
     direction -0.0685862 -0.188439 0.979687   
     length 2.13088  
     axis -90 -7.62852e-016 -20   XYZ
    dof rx rz
    limits (-45.0 90.0)
           (-20.0 70.0)
  end
  begin
     id 10 
     name rtoes
     direction -1.53538e-011 -4.21514e-011 1   
     length 1.07326   
     axis -90 -7.62852e-016 -20   XYZ
    dof rx
    limits (-90.0 20.0)
  end
  begin
     id 11 
     name lowerback
     direction -0.0358974 0.997216 0.065354   
     length 1.87174   
     axis 0 0 0   XYZ
    dof rx ry rz
    limits (-20.0 45.0)
           (-30.0 30.0)
           (-30.0 30.0)
  end
  begin
     id 12 
     name upperback
     direction 0.0202028 0.998565 0.0495864   
     length 1.8684   
     axis 0 0 0   XYZ
    dof rx ry rz
    limits (-20.0 45.0)
           (-30.0 30.0)
           (-30.0 30.0)
  end
  begin
     id 13 
     name thorax
     direction 0.0366367 0.999163 0.0182199   
     length 1.87747   
     axis 0 0 0   XYZ
    dof rx ry rz
    limits (-20.0 45.0)
           (-30.0 30.0)
           (-30.0 30.0)
  end
  begin
     id 14 
     name lowerneck
     direction 0.0284381 0.999578 -0.00598196   
     length 1.84583   
     axis 0 0 0   XYZ
    dof rx ry rz
    limits (-20.0 45.0)
           (-30.0 30.0)
           (-30.0 30.0)
  end
  begin
     id 15 
     name upperneck
     direction -0.0888142 0.993333 -0.0734973   
     length 1.84467   
     axis 0 0 0   XYZ
    dof rx ry rz
    limits (-20.0 45.0)
           (-30.0 30.0)
           (-30.0 30.0)
  end
  begin
     id 16
     name head
     direction -0.0296474 0.999102 -0.0302696  
     length 1.86566  
     axis 0 0 0   XYZ
    dof rx ry rz
    limits (-20.0 45.0)
           (-30.0 30.0)
           (-30.0 30.0)
  end
  begin
     id 17 
     name lclavicle
     direction 0.933925 0.35714 -0.0153523  
     length 3.93442  
     axis 0 0 0   XYZ
    dof ry rz
    limits (-20.0 10.0)
           (0.0 20.0)
  end
  begin
     id 18 
     name lhumerus
     direction 1 -4.48967e-011 2.12044e-027   
     length 5.78174   
     axis 180 -30 -90   XYZ
    dof rx ry rz
    limits (-60.0 90.0)
           (-90.0 90.0)
           (-90.0 90.0)
  end
  begin
     id 19
     name lradius
     direction 1 -4.48972e-011 6.45701e-027   
     length 3.53992   
     axis 180 -30 -90   XYZ
    dof rx
    limits (-10.0 170.0)
  end
  begin
     id 20
     name lwrist
     direction 1 -4.48981e-011 1.70244e-026   
     length 1.76996   
     axis -1.1226e-014 90 90   XYZ
    dof ry
    limits (-180.0 0.0)
 end
  begin
     id 21 
     name lhand
     direction 1 -4.4879e-011 3.40615e-026   
     length 0.550243   
     axis -2.17265e-014 90 90   XYZ
    dof rx rz
    limits (-90.0 90.0)
           (-45.0 45.0)
  end
  begin
     id 22 
     name lfingers
     direction 1 -4.49029e-011 6.80911e-026   
     length 0.44362   
     axis -4.34526e-014 90 90   XYZ
    dof rx
    limits (0.0 90.0)
  end
  begin
     id 23
     name lthumb
     direction 0.707107 -6.34923e-011 0.707107   
     length 0.636952   
     axis -90 45 -1.62303e-014   XYZ
    dof rx rz
    limits (-45.0 45.0)
           (-45.0 45.0)
  end
  begin
     id 24 
     name rclavicle
     direction -0.950832 0.305106 0.0531883   
     length 3.96125  
     axis 0 0 0   XYZ 
    dof ry rz
    limits (-10.0 20.0)
           (-20.0 0.0)
  end
  begin
     id 25 
     name rhumerus
     direction -1 -4.48961e-011 -6.07392e-030  
     length 5.79352   
     axis 180 30 90   XYZ
    dof rx ry rz
    limits (-90.0 60.0)
           (-90.0 90.0)
           (-90.0 90.0)
  end
  begin
     id 26 
     name rradius
     direction -1 -4.48964e-011 5.97548e-027   
     length 3.37081   
     axis 180 30 90   XYZ
    dof rx
    limits (-10.0 170.0)
  end
  begin
     id 27 
     name rwrist
     direction -1 -4.49021e-011 1.7023e-026   
     length 1.68541   
     axis -1.1226e-014 -90 -90   XYZ
    dof ry
    limits (-180.0 0.0)
  end
  begin
     id 28
     name rhand
     direction -1 -4.48867e-011 3.40563e-026   
     length 0.679827   
     axis -2.17265e-014 -90 -90   XYZ
    dof rx rz
    limits (-90.0 90.0)
           (-45.0 45.0)
  end
  begin
     id 29
     name rfingers
     direction -1 -4.49024e-011 6.80917e-026   
     length 0.548094   
     axis -4.34526e-014 -90 -90   XYZ
    dof rx
    limits (0.0 90.0)
  end
  begin
     id 30
     name rthumb
     direction -0.707107 -6.3488e-011 0.707107   
     length 0.786956   
     axis -90 -45 1.62303e-014   XYZ
    dof rx rz
    limits (-45.0 45.0)
           (-45.0 45.0)
  end
:hierarchy
  begin
    root lhipjoint rhipjoint lowerback
    lhipjoint lfemur
    lfemur ltibia
    ltibia lfoot
    lfoot ltoes
    rhipjoint rfemur
    rfemur rtibia
    rtibia rfoot
    rfoot rtoes
    lowerback upperback
    upperback thorax
    thorax lowerneck lclavicle rclavicle
    lowerneck upperneck
    upperneck head
    lclavicle lhumerus
    lhumerus lradius
    lradius lwrist
    lwrist lhand lthumb
    lhand lfingers
    rclavicle rhumerus
    rhumerus rradius
    rradius rwrist
    rwrist rhand rthumb
    rhand rfingers
  end

#!OML:ASF H:\Terrain\Patient Classification 1\PaulMetrics\Match1Take2\PaulMetrics.ASF
:FULLY-SPECIFIED
:DEGREES
520
root -4.58089 18.397 -0.11606 11.7831 31.0932 -1.07331
lowerback -5.81354 -0.0681321 -4.34462
upperback -6.13736 0.154363 1.9474
thorax -3.12051 0.316498 4.46359
lowerneck -2.63598 9.04077 5.9085
upperneck 9.53604 12.8558 -9.39675
head 4.27329 6.19107 -3.14588
rclavicle -3.14825e-014 -1.21259e-014
rhumerus -53.619 17.4447 -86.0676
rradius 48.9849
rwrist -9.73992
rhand -11.7716 -34.2408
rfingers 7.12502
rthumb 14.2771 -63.73
lclavicle -3.14825e-014 -1.21259e-014
lhumerus -56.5487 -12.3656 91.2041
lradius 50.1546
lwrist 3.10592
lhand -17.1143 -6.79736
lfingers 7.12502
lthumb 9.12505 22.9852
rfemur -24.9908 4.23241 23.1014
rtibia 29.0806
rfoot -15.8498 -17.2573
rtoes -10.2405
lfemur -33.6281 0.953454 -19.2091
ltibia 66.9429
lfoot -8.13679 -2.19286
ltoes -15.4758
521
root -4.54089 18.393 0.0474469 10.8074 30.9939 -2.1693
lowerback -5.72997 0.116371 -3.71338
upperback -5.97601 0.380141 2.14803
thorax -3.01473 0.403832 4.32178
lowerneck -2.85909 8.99918 5.95554
upperneck 9.80691 12.8131 -9.39455
head 4.39219 6.15935 -3.13936
rclavicle -5.61753e-014 -8.54774e-015
rhumerus -53.5766 17.2431 -85.928
rradius 49.8483
rwrist -9.95326
rhand -12.2004 -34.0698
rfingers 7.12502
rthumb 13.8639 -63.5877
lclavicle -5.61753e-014 -8.54774e-015
lhumerus -56.7623 -12.284 90.9277
lradius 49.1235
lwrist 3.32786
lhand -18.0402 -5.91005
lfingers 7.12502
lthumb 8.23157 23.9096
rfemur -23.8144 5.00109 24.3491
rtibia 28.9366
rfoot -16.1794 -18.0327
rtoes -11.6971
lfemur -34.0841 1.50273 -18.3184
ltibia 66.3323
lfoot -9.66264 -2.08127
ltoes -18.9723
522
root -4.48959 18.3983 0.182805 11.0031 30.9235 -1.84762
lowerback -5.74858 0.202891 -3.98209
upperback -6.01644 0.50097 1.93564
thorax -3.06099 0.471767 4.2556
lowerneck -3.09852 8.93905 5.88055
upperneck 10.0517 12.7176 -9.13852
head 4.47771 6.10863 -3.04208
rclavicle -2.39784e-014 -1.23246e-014
rhumerus -53.5892 16.9038 -85.8076
rradius 50.7732
rwrist -10.4242
rhand -12.7781 -33.8176
rfingers 7.12502
rthumb 13.3071 -63.3727
lclavicle -2.39784e-014 -1.23246e-014
lhumerus -57.146 -12.1796 90.5875
lradius 48.2755
lwrist 3.74142
lhand -18.5975 -5.90678
lfingers 7.12502
lthumb 7.69369 23.9333
rfemur -23.3289 5.2425 24.1243
rtibia 28.8356
rfoot -16.906 -18.1988
rtoes -9.75637
lfemur -34.848 1.60778 -18.9141
ltibia 65.4192
lfoot -9.1876 -1.13802
ltoes -16.0274
523
root -4.43086 18.4067 0.30464 11.3848 30.9483 -1.57207
lowerback -5.84823 0.230497 -4.02057
upperback -6.11969 0.539818 1.73501
thorax -3.11528 0.492215 4.06949
lowerneck -3.12817 8.90717 5.77012
upperneck 10.0378 12.6553 -8.94926
head 4.45442 6.08175 -2.97208
rclavicle 7.48859e-014 -4.67144e-015
rhumerus -53.5728 16.8533 -85.756
rradius 51.7868
rwrist -11.1339
rhand -12.9594 -33.9051
rfingers 7.12502
rthumb 13.1323 -63.4716
lclavicle 7.48859e-014 -4.67144e-015
lhumerus -57.4984 -11.9515 90.2229
lradius 47.5168
lwrist 4.14492
lhand -18.2857 -8.04239
lfingers 7.12502
lthumb 7.99462 21.7864
rfemur -23.0146 5.15561 23.9436
rtibia 28.5707
rfoot -17.2824 -18.3435
rtoes -9.70264
lfemur -35.8531 1.49466 -19.4904
ltibia 64.3266
lfoot -9.44278 -0.316348
ltoes -15.7398
524
root -4.37667 18.4105 0.429162 11.4003 31.0792 -1.73101
lowerback -5.79817 0.245411 -3.79554
upperback -6.20303 0.55119 1.71376
thorax -3.22704 0.493534 3.91974
lowerneck -2.91472 8.86063 5.76679
upperneck 9.90742 12.6017 -9.05052
head 4.3812 6.06013 -3.01874
rclavicle 1.04983e-014 1.2921e-015
rhumerus -53.5837 17.1024 -85.7129
rradius 52.6898
rwrist -11.6328
rhand -12.9792 -33.916
rfingers 7.12502
rthumb 13.1133 -63.4837
lclavicle 1.04983e-014 1.2921e-015
lhumerus -57.7432 -11.5402 89.8443
lradius 46.6177
lwrist 4.14398
lhand -17.3976 -7.90176
lfingers 7.12502
lthumb 8.85166 21.8926
rfemur -22.5593 5.15719 24.2049
rtibia 28.4266
rfoot -17.6422 -18.5668
rtoes -10.5692
lfemur -36.78 1.39551 -19.5792
ltibia 63.1467
lfoot -9.84875 0.751238
ltoes -16.9712
525
root -4.28841 18.436 0.603621 11.6302 31.4025 -1.54293
lowerback -6.81636 0.129834 -3.87823
upperback -6.04299 0.436968 1.66648
thorax -2.48246 0.418915 3.92185
lowerneck -2.76738 8.83263 5.66459
upperneck 9.76873 12.5678 -9.08562
head 4.3077 6.04586 -3.02601
rclavicle 1.00728e-014 2.55438e-014
rhumerus -53.5036 17.3377 -85.5595
rradius 53.4027
rwrist -11.7502
rhand -13.3467 -33.7575
rfingers 7.12502
rthumb 12.759 -63.3476
lclavicle 1.00728e-014 2.55438e-014
lhumerus -57.8635 -11.147 89.5508
lradius 45.6224
lwrist 4.02898
lhand -16.8532 -6.37853
lfingers 7.12502
lthumb 9.37696 23.3929
rfemur -21.7473 4.18227 24.2377
rtibia 28.2464
rfoot -18.331 -18.1231
rtoes -10.8113
lfemur -37.2664 1.19804 -19.999
ltibia 61.7729
lfoot -10.6726 1.36729
ltoes -17.6192
526
root -4.25808 18.4269 0.703104 11.4896 31.3667 -1.91584
lowerback -6.42058 0.202757 -3.72883
upperback -6.06158 0.514896 1.76054
thorax -2.72798 0.460327 3.93529
lowerneck -3.01804 8.85524 5.55691
upperneck 9.74302 12.5966 -9.11568
head 4.3393 6.04752 -3.00495
rclavicle 1.881e-014 8.64713e-015
rhumerus -53.2373 17.7682 -85.4802
rradius 54.0392
rwrist -12.0061
rhand -13.6559 -33.64
rfingers 7.12502
rthumb 12.4609 -63.2486
lclavicle 1.881e-014 8.64713e-015
lhumerus -57.751 -10.9196 89.3292
lradius 44.5767
lwrist 4.47962
lhand -15.9902 -5.63478
lfingers 7.12502
lthumb 10.2096 24.0975
rfemur -21.3236 4.91325 24.6551
rtibia 28.0663
rfoot -18.6632 -18.8107
rtoes -9.73856
lfemur -38.2024 1.41982 -19.8248
ltibia 60.5029
lfoot -11.228 1.19426
ltoes -15.8811
527
root -4.21702 18.4143 0.813875 11.7371 31.2784 -1.82145
lowerback -6.35387 0.236136 -3.9482
upperback -6.08284 0.565011 1.71977
thorax -2.79587 0.494558 4.01806
lowerneck -3.10533 8.8582 5.58054
upperneck 9.52045 12.5911 -9.25795
head 4.29657 6.04084 -3.05144
rclavicle 5.16033e-014 2.3059e-014
rhumerus -53.002 18.2491 -85.507
rradius 54.8036
rwrist -12.7611
rhand -14.0381 -33.6539
rfingers 7.12502
rthumb 12.0924 -63.2845
lclavicle 5.16033e-014 2.3059e-014
lhumerus -57.7579 -10.586 88.949
lradius 43.7701
lwrist 4.67351
lhand -16.0851 -5.97011
lfingers 7.12502
lthumb 10.1181 23.7666
rfemur -21.0133 5.52976 24.6088
rtibia 27.8604
rfoot -18.9165 -19.2699
rtoes -8.95796
lfemur -39.0825 1.51347 -20.1266
ltibia 59.0422
lfoot -11.8744 1.19581
ltoes -13.9039
528
root -4.17127 18.4012 0.934448 11.8438 31.0475 -1.66071
lowerback -6.26274 0.342782 -4.25836
upperback -6.0492 0.713738 1.64434
thorax -2.83185 0.578644 4.11925
lowerneck -3.15376 8.84646 5.57635
upperneck 9.38811 12.5633 -9.28114
head 4.26362 6.02691 -3.0599
rclavicle 8.75196e-014 3.16565e-014
rhumerus -52.8239 18.4497 -85.4625
rradius 55.7236
rwrist -13.7116
rhand -14.4665 -33.8399
rfingers 7.12502
rthumb 11.6793 -63.4944
lclavicle 8.75196e-014 3.16565e-014
lhumerus -57.8011 -10.2814 88.4864
lradius 43.0129
lwrist 4.1425
lhand -16.8258 -6.84448
lfingers 7.12502
lthumb 9.40347 22.9258
rfemur -20.4932 6.031 24.5168
rtibia 27.6282
rfoot -19.1061 -19.6509
rtoes -9.99704
lfemur -39.7475 1.71586 -20.5249
ltibia 57.4458
lfoot -12.5577 1.74414
ltoes -13.0255
529
root -4.12457 18.3911 1.06661 11.6994 30.7706 -1.77789
lowerback -6.14661 0.481778 -4.3372
upperback -5.98898 0.895688 1.59817
thorax -2.85337 0.670437 4.1206
lowerneck -3.28697 8.89143 5.63961
upperneck 9.35588 12.6169 -9.32523
head 4.28707 6.04962 -3.07288
rclavicle 2.29317e-014 1.48095e-014
rhumerus -52.6838 18.0636 -85.1719
rradius 56.811
rwrist -13.759
rhand -14.0044 -34.2744
rfingers 7.12502
rthumb 12.1249 -63.9031
lclavicle 2.29317e-014 1.48095e-014
lhumerus -57.5887 -10.0311 87.9606
lradius 41.7675
lwrist 3.71561
lhand -16.7586 -6.89832
lfingers 7.12502
lthumb 9.4683 22.869
rfemur -19.8293 6.54668 24.6861
rtibia 27.3291
rfoot -19.437 -20.0384
rtoes -11.4026
lfemur -40.2103 2.1012 -20.6768
ltibia 55.6032
lfoot -13.0412 2.56692
ltoes -14.662
